<?xml version="1.0" encoding="UTF-8"?>
<svg id="Layer_1" xmlns="http://www.w3.org/2000/svg" version="1.1" viewBox="0 0 786.98 510.2">
  <!-- Generator: Adobe Illustrator 29.8.4, SVG Export Plug-In . SVG Version: 2.1.1 Build 6)  -->
  <defs>
    <style>
      .st0 {
        fill: #e7ae30;
      }

      .st1 {
        fill: #fff;
      }

      .st2 {
        fill: #0f2043;
      }
    </style>
  </defs>
  <g>
    <path class="st1" d="M504.3.1c-10.3-.1-20.3,3.3-28.4,9.7-9.9,7.9-15.8,19.8-16.2,32.4-.3,1.3-1.4,5.5-5.2,14.2-3,7-6.7,14.7-10.9,23.2h-.5c-8.3.5-17.6.8-27.6.8s-14.6-1.4-17.5-2.5c-6.7-2.6-9.6-4.7-10.5-5.4-11.6-9.7-23.2-11.7-30.9-11.7-7.1,0-14,1.7-20.3,5-8.1-3.3-16.8-5-25.6-4.9-13.8,0-27.9,4.4-42.1,13.2-12.3,7.7-23.2,17.5-32.2,28.8-10,12.4-17.9,26.2-23.7,41.1-2.3,5.9-4.2,11.9-5.7,18-10.9-9.2-24.7-14.3-38.9-14.2-13.6,0-27.5,3.9-42.5,12-12.2,6.7-23.7,14.7-34.3,23.7-11.2,9.5-21.9,19.6-31.8,30.4-10.1,10.9-19.5,22.4-28.1,34.5-8,11.3-15.1,23.3-21,35.8C3.4,299.2,0,312.9,0,325.9c-.1,11.6,2.2,23.1,6.8,33.7,7.6,17.4,20.8,31.8,37.5,40.9,9.1,5,19.2,7.6,29.5,7.7,17.3,0,31-9.7,40-17.2,2.8,2.5,5.8,4.8,8.9,6.9,9.7,6.6,21.2,10.2,33,10.3,14,0,27.9-4.9,42.4-15,10.3-7.3,20-15.6,28.9-24.6,1.3-1.3,2.6-2.7,4-4v.7c0,23,4,43.8,11.8,61.9,7.7,17.8,17.9,33.1,30.3,45.4,11.9,12,26.1,21.5,41.7,28,15.3,6.3,30.5,9.6,45.1,9.6s27.4-2.2,38.5-6.8c9.7-3.8,18.6-9.3,26.3-16.3,8.2-7.3,14.8-16.2,19.3-26.2,4.5-9.9,4.7-21.2.6-31.3-.8-1.9-1.7-3.8-2.7-5.5,5.3,7,11.6,13.1,18.9,18.1h0c7.6,5.3,16.3,8.9,25.4,10.5,2.8.5,5.6.7,8.5.7,23.8,0,42.4-18.2,42.4-41.5,0-.4.3-4,3.5-12.5,2.3-6.1,5.1-12.8,8.5-19.8,5.2,6.3,11.4,11.7,18.5,16,6.7,4.1,14,7.3,21.6,9.5,6.5,1.9,13.1,3,19.9,3.1,9.4-.1,18.7-1.6,27.7-4.3,11.7-3.5,22.6-9.5,32-17.4,10.3-8.6,18.8-20,25.1-33.9,3-6.7,5.3-13.7,6.8-20.9,5.7-2.1,11.2-4.6,16.6-7.4,12.6-6.6,22.9-13.5,31.5-21.2,7.6-6.5,14.4-13.9,20.4-21.9,4-5.5,6.8-9.7,8.9-13,6.5-10,9.4-20.5,8.8-31h0c-.8-15.4-9.5-29.2-22.9-36.6h0c-6.6-3.6-14-5.5-21.5-5.5-5.3,0-10.6.9-15.6,2.7h-.1c-2,.7-4,1.6-5.9,2.6.2-2,.2-4,.2-6,0-11.8-3-23.5-8.8-33.8-4.1-7.4-9.1-14.2-14.8-20.4-4.8-5.2-10-9.9-15.5-14.2-3.3-2.5-6.2-4.8-8.4-6.5-.4-.4-.9-.7-1.4-1-7.5-5.4-16.4-8.3-25.7-8.3-7.5,0-14.8,2-21.3,5.6-5.3-6.6-11.5-12.5-18.4-17.5-9.8-7-20.6-12.4-32-16.1,0-16.3-3.7-30.8-10.9-43.1-6.4-10.9-14.1-19.6-23-26.1-10.7-7.8-21.8-12.1-33-12.9h0c-1.2,0-2.3-.1-3.5-.1h0l-.1.1Z"/>
    <path class="st2" d="M504.3,15.1c-16.8,0-29.5,12.2-29.6,28.5,0,.6-.7,5.5-6.4,18.8-4,9.3-9.1,19.9-15.1,31.6-2.8.2-5.9.4-9.1.6-8.7.6-18.3.9-28.5.9s-17.1-1.2-23-3.5c-7.9-3.1-12.2-5.9-14.5-7.7-6.6-5.5-13.8-8.3-21.3-8.3-7.1,0-13.9,2.6-19.2,7.3-8.1-4.8-17.3-7.3-26.7-7.2-10.9,0-22.5,3.7-34.2,11-10.8,6.9-20.5,15.5-28.5,25.5-9,11.2-16.2,23.7-21.4,37.1-6,15.4-9,31.8-8.8,48.3v3.6c-.8-2-1.8-4-2.9-6.1-4-7.5-9.2-14.3-15.5-20-8.5-8-19.7-12.5-31.4-12.5s-22.6,3.4-35.4,10.2c-11.3,6.3-21.9,13.6-31.8,22-10.8,9.1-20.9,18.8-30.5,29.1-9.7,10.4-18.6,21.4-26.8,33-7.5,10.6-14.1,21.8-19.7,33.5-6.1,13-9,24.6-9,35.4-.1,9.5,1.8,18.9,5.6,27.7,6.2,14.3,17.1,26.1,30.8,33.6,6.9,3.8,14.7,5.9,22.6,6,12.7,0,23.2-7.6,31-14.3,3.3-2.8,6.7-5.8,10-9,.4.5.7.9,1.1,1.4,4.3,5.4,9.4,10.2,15.2,14,7.3,5.1,15.9,7.8,24.7,7.9,10.9,0,21.9-4,33.8-12.3,9.6-6.8,18.6-14.5,26.9-22.9,8.7-8.7,17.4-18.3,26-28.5,3.7-4.4,7.2-8.7,10.7-12.9-.4,1.2-.7,2.5-1,3.7-4,14.7-6.1,29.8-6.1,45,0,20.9,3.5,39.8,10.5,56,6.9,16,16,29.7,27.1,40.6,10.6,10.6,23.1,19,36.9,24.8,13.5,5.6,26.7,8.4,39.4,8.4s23.5-1.9,32.8-5.7c8.1-3.2,15.5-7.7,21.9-13.5,6.7-5.9,12-13.1,15.7-21.2,2.8-6.2,2.9-13.3.4-19.6-2.1-5.4-5.7-10.1-10.3-13.5h0c-4.9-3.7-10.8-5.7-16.9-5.7-4.8,0-16.8,1.5-24.8,14.8-1,.9-2,1.7-3.1,2.4-.5.2-3.4,1.2-10.6,1.2-3.2-.1-6.4-.8-9.4-2-3.2-1.3-6-3.3-8.3-5.8-2.2-2.3-5.5-6.8-8.8-15.5-2.8-7.2-4.1-17.2-4.1-29.8s2-24.6,5.7-36.4c1.2,7.4,3.6,14.6,7.3,21.1,4.2,7.6,10.2,14,17.4,18.8,8.2,5.6,18.4,8.5,30.2,8.5s21.9-4,34.1-12.3c5.5-3.7,10.8-7.8,15.8-12.1-1.4,5-2,10.2-1.8,15.4.3,10.5,3.7,20.6,9.7,29.1,4.5,6.4,10.1,11.9,16.5,16.3,6.6,4.4,13,7.1,19.5,8.2,2,.3,4,.5,6,.5,15.4,0,27.4-11.7,27.4-26.6s.4-6.8,4.4-17.5c4.1-11,8.9-21.7,14.4-32.1,2.7-5.2,5.5-10.4,8.5-15.7,1.2,7,4,13.7,8.1,19.5,4.7,6.7,10.8,12.4,17.8,16.7,5.6,3.4,11.6,6.1,17.9,7.9,5.1,1.6,10.4,2.4,15.8,2.5,8-.1,15.9-1.4,23.5-3.7,9.8-3,18.8-7.9,26.6-14.5,8.5-7.1,15.6-16.7,21-28.5,3.7-8.3,6.1-17,7.2-26,7.9-2.4,15.6-5.4,22.9-9.2,11.5-6.1,20.9-12.3,28.6-19.1,6.7-5.8,12.8-12.3,18.2-19.4,3.8-5.3,6.5-9.2,8.3-12.2,4.8-7.4,7-14.8,6.5-22.1h0c-.5-10.3-6.2-19.5-15.1-24.4-4.4-2.4-9.3-3.6-14.3-3.6-3.6,0-7.2.6-10.6,1.9h0c-6.5,2.4-12.2,6.7-16.2,12.3-.3.4-.5.8-.8,1.1-7,10.5-14.8,18.8-23.2,24.6,0-.3,0-.5.1-.8,1.9-11,3.6-17,4.7-20,1.3-3.9,2.8-7.7,4.5-11.4,3.4-7.3,5.1-15.3,5-23.3,0-9.3-2.4-18.4-6.9-26.5-3.5-6.3-7.7-12.2-12.7-17.4-4.2-4.5-8.8-8.7-13.7-12.5-3.3-2.6-6.3-4.8-8.5-6.6l-.8-.6c-4.9-3.6-10.9-5.5-17-5.5-6.7,0-13.1,2.4-18.3,6.7-2.4,2-4.4,4.2-6.2,6.8-1.2-2.4-2.6-4.8-4.1-7.2-5.3-8.2-12.1-15.3-20-21-8.6-6.1-18-10.8-28-14-3.8-1.3-7.7-2.3-11.6-3,.9-3.6,1.3-7.3,1.4-11,0-13.6-3-25.6-8.9-35.6-5.3-9.1-11.7-16.4-18.9-21.6-8.3-6.1-16.8-9.4-25.2-10h-2.5.1l-.2-.9Z"/>
    <path class="st0" d="M504.3,40.1h.9c3.6.2,7.6,2,12.1,5.2,4.5,3.3,8.5,8,12.1,14.1s5.4,13.8,5.4,23c0,3.1-1.1,7.6-3.2,13.4-2.7,6.9-5.8,13.7-9.4,20.3h10.5c11.3,0,21.1,1.4,29.4,4.2,7.5,2.4,14.7,5.9,21.1,10.5,5.4,3.8,10,8.6,13.5,14.1,3,4.6,5.3,9.6,7,14.9,3.8,1,7.3,3,10.1,5.7,4.6,4.1,7.2,8.6,7.9,13.4.2,1.9.3,3.9.2,5.8-.2,2-.8,4-1.8,5.8-1.4,2.8-3,5.4-4.7,8-2,3.1-4.9,7.2-8.5,12.3-5,7.2-11.2,16.2-18.6,26.9-7.3,10.7-15.1,22.4-23.3,35.1-8.2,12.7-16.3,25.7-24.3,39-8.1,13.4-15.3,26.3-21.8,38.9-5.9,11.3-11.2,23-15.7,34.9-4,10.7-5.9,19.5-6,26.2,0,1.1-.8,1.6-2.4,1.6-.6,0-1.3,0-1.9-.2-3.5-.8-6.8-2.2-9.7-4.3-3.9-2.7-7.4-6.2-10.1-10.1-3.2-4.7-5-10.2-5-15.9-.2-2.9.5-6.9,2.3-11.9,2.2-5.9,4.6-11.7,7.4-17.3,3.1-6.5,6.6-13.3,10.5-20.4,3.8-7.1,7.7-14.2,11.5-21.2,4.3-7.7,9.1-15.9,14.2-24.6,5.2-8.7,10.3-17.2,15.5-25.5s10.1-16.2,14.8-23.5,8.7-13.7,12.1-19c.4-.8.9-1.5,1.5-2.2.9-1.3,1.8-2.6,2.5-4-2.4.3-4.8.5-7.2.5-4,0-8-.6-11.8-1.8-5-1.6-9.7-4-13.9-7-5.8-4.1-8.1-7.5-7-10.1.9-2.2,3.1-3.4,6.5-3.4.7,0,1.3,0,2,.1,4.1.5,8.3.8,12.4.7,5,0,9.9-.6,14.8-1.8,5.6-1.4,11-3.4,16-6.1,5.9-3.2,11.4-7.2,16.2-11.9,1.7-2.5,3.2-4.6,4.7-6.5-.8-1.5-1.7-2.9-2.7-4.2-3.4-4.2-7.6-7.7-12.3-10.5-6.2-3.7-12.8-6.5-19.7-8.5-8.7-2.4-17.7-3.6-26.7-3.4h-11.4c-3.7,0-7.4.1-11,.4-7.5,13.5-15.8,28-24.9,43.6l-27.4,46.7c-9.2,15.5-17.8,30.5-26,44.8s-14.8,27.1-20,38.2c-5.2,11.1-8.4,19.9-9.8,26.6-1.3,6.6.2,9.9,4.5,9.9,2.7,0,8-3.4,16.1-10.1,9.5-8.1,18.6-16.8,27.3-25.9,10.1-10.5,20.5-22,31.2-34.7,10.1-11.8,19.4-24.2,28-37.1,1-1.8,2.6-3.1,4.5-3.8.7-.3,1.5-.4,2.3-.4s1.6.2,2.2.6c1.2.7,1.9,2,2,4s-.8,4.3-2.7,7.2c-1.2,1.9-4.3,6.2-9.2,12.8-4.9,6.6-11,14.3-18.3,23.1-7.2,8.8-15.1,18.1-23.8,27.9s-17.3,18.7-25.8,26.9c-7.6,7.4-15.8,14.2-24.6,20.2-7.8,5.3-14.5,8-20,8s-12.2-1.4-16.2-4.2c-4-2.6-7.3-6.2-9.6-10.3-2.4-4.2-3.9-8.8-4.6-13.6-.7-4.6-1.1-9.3-1.1-13.9,0-4.1,1.3-9.8,4-17.2s6.3-15.8,10.8-25.3c4.6-9.5,9.9-20,16.1-31.3s12.6-23.1,19.3-35.2c6.7-12.2,13.7-24.6,20.8-37.2,7.1-12.7,14-25,20.8-37.1-6.3.5-12.8.7-19.5.7h-21c-10.1,0-18.7-.9-25.6-2.7-6.2-1.5-12.1-3.8-17.5-7-4.3-2.5-8-5.8-11-9.8-2.5-3.3-4.6-7-6.1-10.9-2.2-6.3-2.2-10.1-.2-11.6.7-.5,1.5-.8,2.4-.8,1.6,0,3.4.9,5.4,2.6,5.3,4.3,12.4,8.3,21.3,11.8s19.6,5.2,32.2,5.2c10.8,0,20.9-.3,30.2-.9s17-1.3,23.3-2c9.2-17.1,16.6-32.2,22.2-45.2,5.7-13,8.5-22.5,8.5-28.6,0-2.4,1.5-3.6,4.6-3.6"/>
    <path class="st0" d="M310.8,100.9c6.3-.1,12.5,2,17.3,6.1s7.2,9.9,7.2,17.4c-.1,4.2-.8,8.4-2.2,12.5-1.6,5.1-3.5,10.1-5.8,15-2.4,5.3-5.1,10.7-8.1,16.1s-6.1,10.6-9.2,15.7c-7.5,12.1-15.8,24.6-24.9,37.6,8.9-4.6,17.2-8.9,24.9-13l18.8-9.8c6-3.1,10-5.3,11.9-6.5,2.4-1.4,4.8-2.9,7.2-4.5.9-.6,1.9-.9,3-.9,2,.1,3.8.9,5.3,2.2,1.4,1.2,4,3.4,7.6,6.5,3.7,3.2,7,6.8,9.8,10.8,2.8,3.9,4.7,8.4,5.6,13.2.8,4.7-.8,9.3-4.9,13.9-4.1,4.8-9.8,12.3-17.2,22.4-8,11.2-15.3,23-21.7,35.2-7.3,13.9-13.5,28.4-18.4,43.4-5.1,15.1-7.7,30.9-7.8,46.8,0,15.7,1.9,28.6,5.8,38.7,3.9,10.1,8.6,18.1,14.1,23.9,5,5.4,11.2,9.6,18.1,12.1,5.7,2.1,11.6,3.3,17.7,3.4,10.8,0,18.9-1.7,24.2-5.2,5.3-3.5,8.9-6.9,10.8-10.3,1.1-1.9,2.3-2.9,3.5-2.9.7,0,1.4.3,1.9.7,1,.7,1.7,1.8,2.2,2.9-2.3,5-5.6,9.4-9.8,13-4.3,3.8-9.3,6.8-14.6,8.9-6.1,2.5-13.9,3.8-23.3,3.8s-19.3-2.2-29.8-6.5c-10.8-4.5-20.6-11.1-28.9-19.4-8.8-8.7-16-19.6-21.7-32.7-5.7-13.1-8.5-28.5-8.5-46.1,0-13,1.8-26,5.2-38.5,3.4-12.6,7.7-25,12.8-37.1,4.7-11.2,10.1-22.1,16.1-32.6,5.7-9.9,10.7-18.1,15-24.6-6.8,2.9-13.8,5.4-21,7.2-8,2.2-16.2,3.3-24.4,3.5-.4,2.3-1.3,4.4-2.7,6.2-1.4,1.9-4.5,6.2-9.2,12.8s-10.4,14.3-17.2,23.1c-6.7,8.8-14.2,18.1-22.4,27.8s-16.4,18.7-24.6,26.9c-7.2,7.4-15.1,14.1-23.5,20.1-7.5,5.2-14,7.8-19.5,7.8-3.9,0-7.7-1.4-10.8-3.6-3.6-2.4-6.7-5.3-9.4-8.7-2.6-3.2-4.7-6.7-6.5-10.5-1.7-3.6-2.5-6.5-2.5-8.7,0-2.4.3-4.7.9-7,.6-2.5,1.3-4.9,2-7.1,1-2.7,2-5.3,3.2-8-8.7,9.9-16.9,18.8-24.6,26.8-6.5,6.8-13,12.9-19.5,18.4s-11.4,8.3-14.8,8.3c-3.8-.1-7.5-1.2-10.8-3.1-4.1-2.2-7.8-5.1-11-8.5-3.6-3.9-6.6-8.3-8.7-13.2-2.4-5.5-3.5-11.5-3.4-17.5,0-7,2.2-15.2,6.7-24.8,5-10.4,10.8-20.3,17.5-29.7,7.6-10.7,15.8-20.8,24.7-30.4,8.8-9.5,18.2-18.5,28.1-26.9,8.6-7.3,17.8-13.7,27.6-19.2,8.9-4.8,16.7-7.2,23.5-7.2,5.4,0,10.6,2.2,14.4,6,4.2,3.8,7.7,8.2,10.3,13.2,2.3,4.1,3.9,8.6,4.7,13.2.6,4,0,6-2,6-7,0-15.2,3-24.7,9.1-10.3,6.7-20,14.3-28.9,22.9-9.9,9.4-19.3,19.3-28.2,29.7-8.1,9.4-15.6,19.3-22.3,29.6-5.9,9.2-9.8,16.8-11.7,22.8s-.7,9.1,3.6,9.1,4.5-2,9.2-6.1,10.1-9.3,16.2-15.5c6.1-6.3,12.5-13.1,19.1-20.6s12.6-14.5,18.1-21c5.4-6.5,9.7-12.2,13-17s4.6-7.8,4.1-9c-1-1.7-.2-2.5,2.4-2.5s5.5,1,9,2.9c3.9,2.3,7.2,5.3,9.8,9,3,4.1,4.5,9.4,4.5,15.9s-1.7,13.6-5,21.2c-3.4,7.6-6.9,14.6-10.5,21s-6.4,11.7-8.3,15.9-1.4,6.3,1.4,6.3,8.1-3.4,15.5-10.1c8.9-8.2,17.3-16.8,25.3-25.8,9.4-10.5,19.1-22.1,29.3-34.7,10-12.5,19-24.8,26.9-36.7l-1.2-.4c-3.5-1.2-6.6-3.4-9-6.3-2.9-3.3-5.3-7.9-7.2-13.9s-2.9-14-2.9-23.9c-.2-13.3,2.2-26.6,7-39,4.2-11,10.1-21.3,17.5-30.6,6.2-7.9,13.8-14.7,22.2-20.1,7.8-4.8,14.9-7.2,21.1-7.2"/>
    <path class="st2" d="M276.9,215.9c5.3-9.6,10.5-18.8,15.5-27.5,5.1-8.7,9.2-16.4,12.5-23.1s5.4-12.1,6.3-16.1c1-4-.1-6-3.2-6s-6.8,1.9-11,5.8c-4.6,4.3-8.7,9-12.3,14.2-3.9,5.5-7.3,11.4-10.1,17.5-2.8,6.2-4.1,11.4-4.1,15.7,0,2.9.2,5.7.9,8.5.5,2.1,1.3,4.1,2.4,6,.9,1.8,2,3.5,3.2,5.1"/>
    <path class="st0" d="M646.5,150.3c.9,0,1.7.4,2.4.9,2.2,1.7,5.1,3.9,8.7,6.7,3.8,3,7.4,6.2,10.7,9.8,3.5,3.8,6.5,8,9,12.5,2.5,4.4,3.8,9.4,3.8,14.5.1,4.3-.8,8.6-2.5,12.5-2.1,4.5-4,9.2-5.6,13.9-2.1,5.8-4,13.8-5.8,24s-2.9,24.6-3.4,43.2c15.6-3.4,29.2-8.9,40.8-16.6,11.6-7.7,21.9-18.5,31.1-32.2,1.2-1.7,2.8-3,4.7-3.8.7-.3,1.4-.4,2.2-.4s1.6.2,2.3.6c1.4.8,2.2,2.4,2.2,4,.1,1.9-.8,4.3-2.7,7.2-1.4,2.4-3.9,6-7.4,10.9-4.3,5.6-9.1,10.8-14.5,15.4-7.2,6.2-15.2,11.4-23.7,15.7-9.6,5.1-21.3,8.9-35,11.6v2.5c-.2,13.5-2.3,24.5-6.1,32.9-3.9,8.4-8.6,15-14.3,19.7-5.2,4.4-11.2,7.8-17.7,9.8-5.3,1.7-10.9,2.6-16.4,2.7-3.1-.2-6.1-.7-9-1.6-4.1-1.2-8.1-3-11.7-5.2-4.1-2.5-7.6-5.8-10.3-9.8-3-4.4-4.5-9.5-4.3-14.8,0-3.6.8-7.2,2.3-10.5,1.7-3.3,3.8-6.2,6.3-8.9,2.7-2.8,5.7-5.2,9-7.2,3.4-2.1,6.9-3.9,10.5-5.6,9-4.1,18.5-7.3,28.2-9.4,1.2-8.2,2.2-16.8,2.9-25.7.5-7.7.7-16.2.7-25.5s-.9-18.5-2.5-27.7c-.2-.4-.4-.9-.4-1.4v-3.6c-3.6,6-7.7,12.5-12.3,19.5s-9.3,13.9-14.1,20.6c-1.7,2.4-3.4,3.8-5.2,4.2-.5,0-1,.2-1.5.2-1,0-2-.3-2.8-.9-1.2-1-1.8-2.5-1.8-4,0-2.2.7-4.3,2-6,3.1-4.6,6.7-9.9,10.7-15.9s7.9-12.3,11.7-18.7c3.9-6.5,7.4-13,10.7-19.5,2.9-5.7,5.3-11.6,7-17.7.5-2.2,1.2-4.8,2.2-7.8s2-5.8,3.1-8.3c.8-2.1,2.1-4.1,3.8-5.6.6-.6,1.4-.9,2.2-.9"/>
    <path class="st2" d="M629.7,308.1c-7.5,2.1-14.9,4.8-22,8-5.4,2.6-10.5,5.8-15.2,9.6-4.6,3.7-6.9,8.1-6.9,13.2,0,4.1,1.7,7,5.2,8.7,1.6.8,3.5,1.2,5.3,1.2,2.4,0,4.8-.6,7-1.5,4.7-1.9,9.6-6,14.6-12.1s9-15.1,11.9-27"/>
  </g>
  <path class="st2" d="M201.1,250.5c5.8-1.2,11.1-4.3,15-8.8,3-3.5,5.1-7.7,6.1-12.2,1.8,6,4.5,11.6,7.8,16.9-4.1,5.6-8.4,11.3-13,17-1.7,2.2-3.5,4.3-5.2,6.4-1.5-5.5-4-10.6-7.3-15.2-1.1-1.5-2.2-2.8-3.3-4.2h0l-.1.1Z"/>
</svg>